<?xml version="1.0"?><svg width="500" height="500" xmlns="http://www.w3.org/2000/svg">

 <metadata id="metadata7">image/svg+xmlClapper-board2006-11-11Stellarismovies, clapper-board</metadata>
 <g>
  <title>Layer 1</title>
  <g id="layer1">
   <rect fill="black" fill-rule="evenodd" stroke-width="2" stroke-miterlimit="4" stroke-dashoffset="0" ry="10.405553" rx="10.342281" id="rect2098" width="91.138451" height="49.550255" x="90.871279" y="16.083912" transform="matrix(0 1 1 0 0 0)"/>
   <rect fill="black" fill-rule="evenodd" stroke-width="4" stroke-miterlimit="4" stroke-dashoffset="0" ry="8.962941" rx="8.962941" y="170.922269" x="17.726512" height="280.578" width="469.73599" id="rect1959"/>
   <g transform="matrix(0.693704 0 0 0.689485 86.8173 194.397)" id="g2026">
    <rect fill="black" fill-rule="evenodd" stroke-width="2" stroke-miterlimit="4" stroke-dashoffset="0" y="-79.861422" x="-102.756843" height="71.428574" width="683.46167" id="rect1874"/>
    <g id="g1896" transform="matrix(1 0 0 0.970194 7.6294e-06 14.0816)">
     <rect fill="white" fill-rule="evenodd" stroke-width="2" stroke-miterlimit="4" stroke-dashoffset="0" id="rect1888" width="65.392929" height="73.897057" x="-44.635728" y="30.874393" transform="matrix(1 0 0.465746 -0.884918 0 0)"/>
     <rect fill="white" fill-rule="evenodd" stroke-width="2" stroke-miterlimit="4" stroke-dashoffset="0" transform="matrix(1 0 0.465746 -0.884918 0 0)" y="30.874293" x="122.812572" height="73.897026" width="65.392929" id="rect1890"/>
     <rect fill="white" fill-rule="evenodd" stroke-width="2" stroke-miterlimit="4" stroke-dashoffset="0" id="rect1892" width="65.392929" height="73.896996" x="290.260782" y="30.874203" transform="matrix(1 0 0.465746 -0.884918 0 0)"/>
     <rect fill="white" fill-rule="evenodd" stroke-width="2" stroke-miterlimit="4" stroke-dashoffset="0" transform="matrix(1 0 0.465746 -0.884918 0 0)" y="30.874113" x="457.709082" height="73.896965" width="65.392929" id="rect1894"/>
    </g>
   </g>
   <rect fill="black" fill-rule="evenodd" stroke-width="2" stroke-miterlimit="4" stroke-dashoffset="0" transform="matrix(-0.992438 0.122747 0.12423 0.992253 0 0)" y="91.232719" x="-472.731392" height="49.253487" width="474.07544" id="rect2006"/>
   <g id="g2008" transform="matrix(-0.688395 0.0851418 0.0831092 0.663814 674.461 86.9883)">
    <rect fill="white" fill-rule="evenodd" stroke-width="2" stroke-miterlimit="4" stroke-dashoffset="0" id="rect2010" width="65.392929" height="73.897057" x="251.727958" y="53.014275" transform="matrix(1 0 0.465746 -0.884918 0 0)"/>
    <rect fill="white" fill-rule="evenodd" stroke-width="2" stroke-miterlimit="4" stroke-dashoffset="0" transform="matrix(1 0 0.465746 -0.884918 0 0)" y="53.014175" x="419.176258" height="73.897026" width="65.392929" id="rect2012"/>
    <rect fill="white" fill-rule="evenodd" stroke-width="2" stroke-miterlimit="4" stroke-dashoffset="0" id="rect2014" width="65.392929" height="73.896996" x="586.624468" y="53.014085" transform="matrix(1 0 0.465746 -0.884918 0 0)"/>
    <rect fill="white" fill-rule="evenodd" stroke-width="2" stroke-miterlimit="4" stroke-dashoffset="0" transform="matrix(1 0 0.465746 -0.884918 0 0)" y="53.013995" x="754.072768" height="73.896965" width="65.392929" id="rect2016"/>
   </g>
   <path fill="white" fill-rule="evenodd" stroke="white" stroke-width="4" marker-start="none" marker-mid="none" marker-end="none" stroke-miterlimit="4" stroke-dashoffset="0" d="m50.441189,109.260712a9.834212,9.774397 0 1 1 -19.668427,2.432617a9.834212,9.774397 0 1 1 19.668427,-2.432617z" id="path2022"/>
   <path fill="none" fill-rule="evenodd" stroke="#ccc" stroke-width="0.691591px" id="path2024" d="m15.458298,188.64563l474.195908,0"/>
   <g transform="matrix(0.693704 0 0 0.689485 86.8173 194.413)" id="g2113">
    <path fill="none" fill-rule="evenodd" stroke="white" stroke-width="4" d="m-72.318451,255.145142l622.584869,0" id="path1950"/>
    <g id="g1984">
     <path fill="none" fill-rule="evenodd" stroke="white" stroke-width="3.999994" d="m110.742744,349.945862l0,-93.833496" id="path1952"/>
     <path fill="none" fill-rule="evenodd" stroke="white" stroke-width="3.999994" id="path1954" d="m367.205231,349.945862l0,-93.833496"/>
    </g>
    <path fill="none" fill-rule="evenodd" stroke="white" stroke-width="4" id="path2109" d="m-72.318451,161.285278l622.584869,0"/>
    <path fill="none" fill-rule="evenodd" stroke="white" stroke-width="4" d="m-72.318451,67.425354l622.584869,0" id="path2111"/>
   </g>
  </g>
 </g>
</svg>